<?xml version="1.0" encoding="UTF-8" standalone="no"?>
<svg
   xmlns:dc="http://purl.org/dc/elements/1.1/"
   xmlns:cc="http://creativecommons.org/ns#"
   xmlns:rdf="http://www.w3.org/1999/02/22-rdf-syntax-ns#"
   xmlns:svg="http://www.w3.org/2000/svg"
   xmlns="http://www.w3.org/2000/svg"
   xmlns:sodipodi="http://sodipodi.sourceforge.net/DTD/sodipodi-0.dtd"
   xmlns:inkscape="http://www.inkscape.org/namespaces/inkscape"
   viewBox="0 0 512 512"
   id="svg3108"
   version="1.1"
   inkscape:version="0.48.4 r9939"
   width="100%"
   height="100%"
   sodipodi:docname="icon.svg"
   inkscape:export-filename="G:\downloads\jp-omnisearch.png"
   inkscape:export-xdpi="90"
   inkscape:export-ydpi="90">
  <metadata
     id="metadata3156">
    <rdf:RDF>
      <cc:Work
         rdf:about="">
        <dc:format>image/svg+xml</dc:format>
        <dc:type
           rdf:resource="http://purl.org/dc/dcmitype/StillImage" />
        <dc:title />
      </cc:Work>
    </rdf:RDF>
  </metadata>
  <defs
     id="defs3154" />
  <sodipodi:namedview
     pagecolor="#ffffff"
     bordercolor="#666666"
     borderopacity="1"
     objecttolerance="10"
     gridtolerance="10"
     guidetolerance="10"
     inkscape:pageopacity="0"
     inkscape:pageshadow="2"
     inkscape:window-width="1366"
     inkscape:window-height="705"
     id="namedview3152"
     showgrid="false"
     showguides="true"
     inkscape:guide-bbox="true"
     inkscape:zoom="0.70710678"
     inkscape:cx="5.706479"
     inkscape:cy="196.45904"
     inkscape:window-x="-8"
     inkscape:window-y="-8"
     inkscape:window-maximized="1"
     inkscape:current-layer="g3112" />
  <g
     transform="matrix(16.184785,-9.34429,9.34429,16.184785,-32096.072,-31639.69)"
     id="g3112">
    <path
       style="fill:#4a9ac6;fill-opacity:1;stroke:none"
       d="m 658.01149,2335.1274 c -1.80358,-1.0102 -3.47937,-1.18 -4.92512,-0.5458 l 1.01599,3.7917 c 1.11926,0.085 2.08794,0.5793 2.6196,1.6631 1.13922,-0.7428 2.10526,-2.0344 2.83211,-3.862 -0.52269,-0.4155 -1.03758,-0.7641 -1.54258,-1.047 z m -5.52815,-0.5715 -9.95077,2.6675 1.74656,6.5228 3.06455,-0.8199 c -0.0954,-2.0563 3.33126,-4.432 6.16139,-4.5618 l -1.02173,-3.8086 z m 7.41946,7.7031 c -0.9789,-0.5444 -1.92091,-0.8404 -2.80802,-0.8952 0.11868,1.2501 -0.47897,2.1942 -1.42925,2.8434 l 0.98968,3.6935 c 2.01053,-0.2269 3.6948,-1.7688 4.81335,-4.5813 -0.53101,-0.4222 -1.053,-0.7753 -1.56576,-1.0604 z m -5.12261,-2.7722 c -2.28893,-1.2196 -6.80193,1.4621 -6.25459,3.5059 0.67397,2.5154 8.46998,2.0319 7.39476,-1.9826 -0.2016,-0.7527 -0.61196,-1.2418 -1.14017,-1.5233 z m 0.37107,5.0259 c -2.55803,1.3259 -6.81089,0.9494 -7.66083,-0.961 l -3.04483,0.8158 1.74801,6.5237 9.95222,-2.6667 -0.99457,-3.7118 z m -12.71861,-5.4374 c -1.4071,-0.7137 -2.73467,-0.9232 -3.93518,-0.6385 l 1.68191,6.277 c 1.18309,-0.3538 2.23129,-1.1903 3.09483,-2.4977 l -0.84011,-3.14 -10e-4,-8e-4 z m -4.63872,0.1119 -5.93806,1.5899 -0.76584,1.3264 6.98422,-1.8702 -0.28032,-1.0461 z m 0.56064,2.0923 -8.03039,2.1505 -0.76584,1.3265 9.07654,-2.4308 -0.28031,-1.0462 z m 5.99401,4.9416 c -1.40767,-0.7146 -2.73553,-0.9241 -3.93662,-0.6393 l 1.68046,6.2761 c 1.1832,-0.3539 2.23202,-1.1918 3.09567,-2.4992 l -0.83951,-3.1376 z m -5.43483,-2.8501 -10.12125,2.712 -0.76584,1.3264 11.16741,-2.9923 -0.28032,-1.0461 z m 0.79405,2.9588 -10.91013,2.9246 1.32647,0.7659 9.86398,-2.6443 -0.28032,-1.0462 z m 0.56064,2.0924 -8.81927,2.3631 1.32648,0.7658 7.77311,-2.0828 -0.28032,-1.0461 z m 8.97859,5.4541 c -0.5761,-0.3136 -1.16197,-0.3913 -1.75632,-0.2321 -0.59436,0.1593 -1.06287,0.5195 -1.40501,1.0791 -0.31355,0.5761 -0.39044,1.1606 -0.23119,1.7549 0.15926,0.5944 0.51951,1.0629 1.0791,1.405 0.20349,0.1171 0.4181,0.2013 0.64557,0.253 0.22747,0.052 0.4593,0.068 0.69376,0.049 l 0.41336,1.5381 c 0.0134,0.053 0.0364,0.1022 0.0699,0.1465 0.0335,0.044 0.0758,0.08 0.12458,0.1086 0.10391,0.056 0.20951,0.07 0.31819,0.041 0.10867,-0.029 0.19333,-0.094 0.25515,-0.1944 0.0279,-0.049 0.0464,-0.1014 0.0536,-0.1564 0.007,-0.055 0.004,-0.1078 -0.01,-0.1601 l -0.41397,-1.5404 c 0.2124,-0.101 0.40511,-0.2309 0.57625,-0.3895 0.17113,-0.1585 0.31489,-0.3387 0.43257,-0.5418 0.31355,-0.5761 0.39128,-1.162 0.23203,-1.7564 -0.15926,-0.5943 -0.51807,-1.062 -1.07765,-1.4041 z m -0.42055,0.7284 c 0.35537,0.2174 0.58355,0.5149 0.68502,0.8936 0.10147,0.3787 0.0518,0.7519 -0.14725,1.1179 -0.21744,0.3554 -0.51498,0.5836 -0.89366,0.685 -0.37868,0.1015 -0.75045,0.053 -1.11643,-0.1464 -0.35537,-0.2174 -0.58501,-0.5158 -0.68647,-0.8945 -0.10147,-0.3787 -0.0526,-0.7504 0.14642,-1.1164 0.21742,-0.3554 0.5158,-0.585 0.89449,-0.6865 0.37868,-0.1015 0.75189,-0.052 1.11788,0.1473 z m -7.99741,-4.0902 -6.72694,1.8025 1.32648,0.7658 5.68078,-1.5222 -0.28032,-1.0461 z"
       id="path3136"
       inkscape:connector-curvature="0" />
  </g>
</svg>
